<?xml version="1.0" standalone="no"?>
<!DOCTYPE svg PUBLIC "-//W3C//DTD SVG 20010904//EN"
 "http://www.w3.org/TR/2001/REC-SVG-20010904/DTD/svg10.dtd">
<svg version="1.0" xmlns="http://www.w3.org/2000/svg"
 width="626.000000pt" height="626.000000pt" viewBox="0 0 626.000000 626.000000"
 preserveAspectRatio="xMidYMid meet">

<g transform="translate(0.000000,626.000000) scale(0.100000,-0.100000)"
fill="#000000" stroke="none">
<path d="M0 3130 l0 -3130 3130 0 3130 0 0 3130 0 3130 -3130 0 -3130 0 0
-3130z m1455 1480 c-201 -12 -328 -58 -433 -155 -276 -255 -169 -749 284
-1320 120 -151 470 -498 633 -628 496 -395 1061 -689 1521 -792 386 -87 675
-42 845 129 65 65 95 117 119 206 12 44 15 49 15 24 1 -38 -31 -134 -64 -189
-40 -69 -134 -149 -217 -183 -222 -92 -547 -81 -924 34 -368 111 -822 350
-1179 619 -48 36 -88 65 -91 65 -2 0 -4 -11 -4 -25 l0 -25 -170 0 -170 0 0
172 0 171 -133 136 c-566 581 -798 1151 -614 1507 27 51 106 132 165 168 114
69 224 94 412 93 l125 0 -120 -7z m260 -85 c373 -56 786 -233 1237 -532 70
-46 131 -89 134 -95 4 -6 -20 7 -52 29 -186 125 -491 284 -685 356 -521 195
-918 161 -1039 -88 -36 -73 -40 -211 -11 -326 44 -170 185 -419 362 -639 552
-687 1550 -1279 2199 -1307 150 -6 231 7 319 51 91 47 171 164 171 253 0 17 4
35 10 38 13 8 13 -106 0 -176 -83 -440 -751 -454 -1592 -33 -653 327 -1294
893 -1624 1435 -337 551 -249 959 224 1039 79 13 241 11 347 -5z m245 -1065
c0 -219 2 -251 16 -257 24 -9 151 15 193 37 96 48 131 134 140 335 l6 130 174
3 174 2 -6 -162 c-6 -180 -20 -247 -70 -343 -32 -60 -97 -134 -151 -172 l-30
-20 127 -207 127 -206 0 -70 c0 -39 -3 -70 -6 -70 -13 0 -261 179 -386 278
-165 131 -446 410 -562 557 l-86 109 0 153 0 153 170 0 170 0 0 -250z m1160
-32 c139 -156 258 -284 264 -285 6 -1 127 126 270 283 l258 284 64 0 64 0 -2
-667 -3 -668 -172 -3 -173 -2 0 295 c0 162 -3 295 -7 294 -5 0 -69 -66 -143
-145 -99 -106 -140 -144 -155 -142 -11 2 -81 67 -155 145 l-135 143 -5 -293
-5 -292 -140 -3 c-118 -2 -145 0 -172 15 l-33 18 0 652 0 653 63 0 64 0 253
-282z m1820 100 c46 -101 180 -390 297 -643 117 -252 213 -472 213 -487 l0
-28 -164 0 -163 0 -39 85 -39 85 -261 0 -261 0 -38 -85 -38 -85 -163 0 -164 0
0 28 c0 16 125 299 286 648 157 340 290 629 295 642 8 20 15 22 81 22 l73 0
85 -182z m-493 -1410 c-3 -8 -6 -5 -6 6 -1 11 2 17 5 13 3 -3 4 -12 1 -19z"/>
<path d="M4771 3149 c-5 -13 -37 -89 -70 -168 -34 -79 -61 -145 -61 -147 0 -2
66 -4 146 -4 113 0 145 3 141 13 -15 37 -140 323 -143 326 -2 2 -8 -7 -13 -20z"/>
</g>
</svg>
